<svg width="100" height="100" viewBox="0 0 100 100" fill="none" xmlns="http://www.w3.org/2000/svg">
<rect width="100" height="100" rx="15" fill="#1A70B1"/>
<path d="M20.0005 22.2226V82.2226H80.0006" stroke="white" stroke-width="4" stroke-linecap="round" stroke-linejoin="round"/>
<path d="M38.5853 37.3787C43.2138 37.3787 46.9659 41.1307 46.9659 45.7592C46.9659 50.3876 43.2138 54.1397 38.5853 54.1397C33.9569 54.1397 30.2049 50.3876 30.2049 45.7592C30.2049 41.1307 33.9569 37.3787 38.5853 37.3787Z" stroke="white" stroke-width="4" stroke-linecap="round" stroke-linejoin="round"/>
<path d="M71.6191 23.369C76.2471 23.369 79.9992 27.121 79.9992 31.7494C79.9992 36.3779 76.2471 40.1299 71.6191 40.1299C66.9906 40.1299 63.2384 36.3779 63.2384 31.7494C63.2384 27.121 66.9906 23.369 71.6191 23.369Z" stroke="white" stroke-width="4" stroke-linecap="round" stroke-linejoin="round"/>
<path d="M59.9687 54.1396C64.5971 54.1396 68.3492 57.8917 68.3492 62.5201C68.3492 67.1485 64.5971 70.9006 59.9687 70.9006C55.3402 70.9006 51.5882 67.1485 51.5882 62.5201C51.5882 57.8917 55.3402 54.1396 59.9687 54.1396Z" stroke="white" stroke-width="4" stroke-linecap="round" stroke-linejoin="round"/>
<path d="M19.9995 63.6617L31.9584 50.8907" stroke="white" stroke-width="4" stroke-linecap="round" stroke-linejoin="round"/>
<path d="M45.8944 49.9367L53.5629 57.0891" stroke="white" stroke-width="4" stroke-linecap="round" stroke-linejoin="round"/>
<path d="M63.6647 54.9507L69.1949 39.7613" stroke="white" stroke-width="4" stroke-linecap="round" stroke-linejoin="round"/>
</svg>
