<svg width="48" height="48" viewBox="0 0 48 48" fill="none" xmlns="http://www.w3.org/2000/svg">
<rect width="48" height="48" rx="5" fill="#009D8D"/>
<g clip-path="url(#clip0_66_1697)">
<path fill-rule="evenodd" clip-rule="evenodd" d="M24 4.8C13.3961 4.8 4.79999 13.3961 4.79999 24C4.79999 34.6039 13.3961 43.2 24 43.2C34.6039 43.2 43.2 34.6039 43.2 24C43.2 13.3961 34.6039 4.8 24 4.8Z" fill="white"/>
<path fill-rule="evenodd" clip-rule="evenodd" d="M29.3517 5.5559C27.9455 5.14861 26.4729 4.89776 24.9538 4.82344C28.2618 10.0512 30.3094 16.0409 30.9039 22.2859H17.096C17.6905 16.0409 19.7381 10.0513 23.046 4.82344C21.527 4.89777 20.0544 5.14862 18.6482 5.55593C15.8787 10.6952 14.1698 16.3922 13.6532 22.2859H4.87548C4.82551 22.8506 4.79999 23.4224 4.79999 24.0002C4.79999 24.5779 4.82551 25.1497 4.87548 25.7145H13.6532C14.1698 31.6081 15.8787 37.3051 18.6482 42.4443C20.0544 42.8517 21.527 43.1026 23.046 43.177C19.7381 37.9491 17.6905 31.9595 17.096 25.7145H30.9039C30.3094 31.9595 28.2618 37.9491 24.9539 43.177C26.4729 43.1026 27.9455 42.8517 29.3517 42.4443C32.1212 37.3051 33.8301 31.6081 34.3466 25.7145H43.1246C43.1745 25.1497 43.2 24.5779 43.2 24.0002C43.2 23.4224 43.1745 22.8506 43.1246 22.2859H34.3466C33.8301 16.3922 32.1212 10.6951 29.3517 5.5559Z" fill="#009D8D"/>
</g>
<defs>
<clipPath id="clip0_66_1697">
<rect width="38.4" height="38.4" fill="white" transform="translate(4.79999 4.8)"/>
</clipPath>
</defs>
</svg>
